<svg id="Layer_1" data-name="Layer 1" xmlns="http://www.w3.org/2000/svg" viewBox="0 0 1000 217.39"><defs><style>.cls-1{fill:#e6e5e8;}</style></defs><rect class="cls-1" y="-782.61" width="1024.37" height="1024.37"/><path d="M74.53,68.63q17.91,0,28,8.34t10.11,23.28q0,15.68-10.06,24.49t-28.06,8.81H57.93c-.18,0-.27-.09-.27-.28a.25.25,0,0,1,.27-.28,4.94,4.94,0,0,0,3.39-1.11A3.68,3.68,0,0,0,62.57,129V73.17a3.68,3.68,0,0,0-1.25-2.87,5,5,0,0,0-3.39-1.12.24.24,0,0,1-.27-.27c0-.19.09-.28.27-.28Zm-6.86,63.81h7q15.11,0,23.83-8.3T107.64,101q.1-14.85-8.76-23.14t-24.72-8.4H67.67Z"/><path d="M135.65,133a.25.25,0,0,1,.28.28.24.24,0,0,1-.28.28H121.28a.24.24,0,0,1-.28-.28.25.25,0,0,1,.28-.28,4.9,4.9,0,0,0,3.38-1.11,3.65,3.65,0,0,0,1.26-2.87V95.15a2.7,2.7,0,0,0-1.12-2.36,3.68,3.68,0,0,0-2.13-.79c-.25,0-.39-.08-.42-.23s.14-.26.51-.33q3.24-.36,8.26-6.12V129a3.64,3.64,0,0,0,1.25,2.87A4.9,4.9,0,0,0,135.65,133Zm-7.88-58.33a3.16,3.16,0,0,1-2.37-1,3.42,3.42,0,0,1-1-2.41,3.37,3.37,0,0,1,1-2.46,3.23,3.23,0,0,1,2.37-1,3.33,3.33,0,0,1,3.43,3.44,3.38,3.38,0,0,1-1,2.41A3.26,3.26,0,0,1,127.77,74.66Z"/><path d="M160.32,134.2q-12.24-.28-16.41-7a2.9,2.9,0,0,1,.28-3.94,7.06,7.06,0,0,1,4.08-2.09q1.29-.27,1.29.93c-.24,3.65.58,6.44,2.46,8.39s4.69,3,8.4,3.11a16.62,16.62,0,0,0,11.73-3.62q4.68-3.89,2.83-9-.93-2.41-4.41-4.5a53,53,0,0,0-7.7-3.76c-2.81-1.11-5.58-2.29-8.3-3.52a20.7,20.7,0,0,1-6.77-4.78,8.93,8.93,0,0,1-2.5-6.72q.09-5.3,5-8.54a18.74,18.74,0,0,1,11.83-2.78q9.36.55,14.28,4.73c1.3,1.36,1.62,2.66,1,3.9a4.15,4.15,0,0,1-3.21,2.22,1,1,0,0,1-1.39-.92,8.79,8.79,0,0,0-3.29-6.4,12,12,0,0,0-7.37-2.69,18.58,18.58,0,0,0-9.6,1.9q-3.86,2.08-3.94,5.7a7.84,7.84,0,0,0,2.46,6,19.74,19.74,0,0,0,6.58,4.22q4,1.68,8.25,3.3a40.19,40.19,0,0,1,8,4.12,14.17,14.17,0,0,1,5.24,5.75q3,6.69-2.64,11.55T160.32,134.2Z"/><path d="M210.22,132.44h.28l.09.27-.18.28q-5.21,2.5-9.37-.14T196.86,124V91a2.82,2.82,0,0,0-1.11-2.41,3.57,3.57,0,0,0-2.13-.84h-9.83v-.55h9.92c1.18-.13,2.41-1,3.71-2.51a66.52,66.52,0,0,0,4.55-6.3v8.81h6.4v.55H202v34.69a13.56,13.56,0,0,0,1.85,7.61Q205.68,132.81,210.22,132.44Z"/><path d="M230.81,133a.25.25,0,0,1,.28.28.25.25,0,0,1-.28.28H216.43c-.18,0-.27-.09-.27-.28a.25.25,0,0,1,.27-.28,4.94,4.94,0,0,0,3.39-1.11,3.68,3.68,0,0,0,1.25-2.87V95.15A2.7,2.7,0,0,0,220,92.79a3.71,3.71,0,0,0-2.14-.79c-.24,0-.38-.08-.41-.23s.14-.26.51-.33q3.24-.36,8.25-6.12V129a3.68,3.68,0,0,0,1.25,2.87A4.94,4.94,0,0,0,230.81,133Zm-7.88-58.33a3.16,3.16,0,0,1-2.37-1,3.38,3.38,0,0,1-1-2.41,3.33,3.33,0,0,1,1-2.46,3.23,3.23,0,0,1,2.37-1,3.35,3.35,0,0,1,3.43,3.44,3.39,3.39,0,0,1-1,2.41A3.25,3.25,0,0,1,222.93,74.66Z"/><path d="M288,132.16l.28.09.09.28-.18.28q-10.75,3.88-10.76-8.81V102.48a21.07,21.07,0,0,0-2.37-9.78,9.85,9.85,0,0,0-4.35-4.36A13.6,13.6,0,0,0,263.36,87q-4.46.29-9.64,4.73t-5.2,8.53V129a3.65,3.65,0,0,0,1.26,2.87,4.9,4.9,0,0,0,3.38,1.11.25.25,0,0,1,.28.28.24.24,0,0,1-.28.28H238.79a.24.24,0,0,1-.28-.28.25.25,0,0,1,.28-.28,4.9,4.9,0,0,0,3.38-1.11,3.64,3.64,0,0,0,1.25-2.87V93.3a2.93,2.93,0,0,0-1-2.41,3.9,3.9,0,0,0-2.22-.93c-.25,0-.39-.08-.42-.23s.14-.26.51-.33a16.3,16.3,0,0,0,8.25-3.15v7a24.21,24.21,0,0,1,7-4.83,22.7,22.7,0,0,1,7.88-2.13q9.84-.65,14.52,4.08a15.2,15.2,0,0,1,4.68,11v18.45q0,7.25,1.07,9.79T288,132.16Z"/><path d="M330.7,90.24q.18-4.74,4.17-6.31,3.24-1.4,5.29.56a3.86,3.86,0,0,1,1,3.24c-.13.93-.5,1.18-1.12.75q-8.07-4.92-8.9,2a18.57,18.57,0,0,1,6.49,8.3,17.78,17.78,0,0,1,.74,10.52,17.09,17.09,0,0,1-8.85,11.32,22.24,22.24,0,0,1-15.54,2,21.46,21.46,0,0,1-9.83-4.73c-2.17,1.54-3.25,3.2-3.25,5s1.12,3.23,3.34,4.41a11.1,11.1,0,0,0,3.57,1.06c1.46.22,3.51.41,6.17.56s4.58.29,5.75.42q10.2,1.11,15.4,5.14t5.19,9.79q0,5.37-6.17,9.32T319,157.57a28.46,28.46,0,0,1-14.47-3.8q-6.59-3.81-8.25-9.09a9.42,9.42,0,0,1,.65-7.65,15.18,15.18,0,0,1,6.77-6.17c-2.73-2-4.08-4.28-4.08-6.91s1.35-4.74,4.08-6.35q-7.71-7.14-5.29-17.44a17.53,17.53,0,0,1,8.81-11.59,20.34,20.34,0,0,1,15.21-1.76A21.8,21.8,0,0,1,330.7,90.24Zm5.19,23.28q3-5,.32-10.81t-9.41-9.5q-8.07-4.08-15.53-3.2t-10.62,6.26q-2.61,4.91,0,10.62a20.1,20.1,0,0,0,9.13,9.32,27.76,27.76,0,0,0,15.54,3.29Q332.74,118.71,335.89,113.52Zm-13.73,21q-2.31-.37-6.21-.79t-6.54-.88a18.52,18.52,0,0,1-4.31-1.21,11.44,11.44,0,0,0-4.73,5.94,11.57,11.57,0,0,0-.1,7.51q1.22,4.17,6.08,7.7a21.46,21.46,0,0,0,10.71,4.08q7.6.93,12.85-2.46c3.49-2.25,5.24-5.18,5.24-8.76Q335.15,137.26,322.16,134.57Z"/><path d="M396.82,132.16l.28.09.09.28-.18.28q-9.93,3.7-10.67-6.77a27.46,27.46,0,0,1-7.09,5.1,20.86,20.86,0,0,1-7.84,2.32q-9.84.64-14.52-4.08a15.21,15.21,0,0,1-4.68-11V97a2.73,2.73,0,0,0-1.11-2.37,3.78,3.78,0,0,0-2.14-.79c-.24,0-.38-.07-.41-.23s.14-.26.51-.32q3.24-.37,8.25-6.12v30.05a21.07,21.07,0,0,0,2.37,9.78,9.82,9.82,0,0,0,4.36,4.36,13.45,13.45,0,0,0,7.37,1.34q4.45-.27,9.64-4.73t5.2-8.53V97a2.73,2.73,0,0,0-1.11-2.37,3.81,3.81,0,0,0-2.14-.79c-.25,0-.38-.07-.42-.23s.14-.26.52-.32q3.24-.37,8.25-6.12v32.64c0,4.83.35,8.09,1.07,9.79S394.6,132.16,396.82,132.16Z"/><path d="M419.26,133a.25.25,0,0,1,.28.28.24.24,0,0,1-.28.28H404.89a.24.24,0,0,1-.28-.28.25.25,0,0,1,.28-.28,4.9,4.9,0,0,0,3.38-1.11,3.65,3.65,0,0,0,1.26-2.87V95.15a2.7,2.7,0,0,0-1.12-2.36,3.68,3.68,0,0,0-2.13-.79c-.25,0-.39-.08-.42-.23s.14-.26.51-.33q3.25-.36,8.26-6.12V129a3.64,3.64,0,0,0,1.25,2.87A4.9,4.9,0,0,0,419.26,133Zm-7.88-58.33a3.13,3.13,0,0,1-2.36-1,3.39,3.39,0,0,1-1-2.41,3.34,3.34,0,0,1,1-2.46,3.21,3.21,0,0,1,2.36-1,3.33,3.33,0,0,1,3.43,3.44,3.38,3.38,0,0,1-1,2.41A3.26,3.26,0,0,1,411.38,74.66Z"/><path d="M443.93,134.2q-12.24-.28-16.41-7a2.9,2.9,0,0,1,.28-3.94,7.06,7.06,0,0,1,4.08-2.09c.86-.18,1.3.13,1.3.93-.25,3.65.57,6.44,2.45,8.39s4.69,3,8.4,3.11a16.6,16.6,0,0,0,11.73-3.62q4.68-3.89,2.83-9-.93-2.41-4.41-4.5a53,53,0,0,0-7.7-3.76c-2.81-1.11-5.58-2.29-8.3-3.52a20.8,20.8,0,0,1-6.77-4.78,9,9,0,0,1-2.5-6.72q.09-5.3,5-8.54a18.74,18.74,0,0,1,11.83-2.78q9.36.55,14.28,4.73,1.95,2,1,3.9a4.15,4.15,0,0,1-3.2,2.22,1,1,0,0,1-1.39-.92,8.84,8.84,0,0,0-3.3-6.4,12,12,0,0,0-7.37-2.69,18.63,18.63,0,0,0-9.6,1.9q-3.85,2.08-3.94,5.7a7.87,7.87,0,0,0,2.46,6,19.74,19.74,0,0,0,6.58,4.22q4,1.68,8.26,3.3a40.38,40.38,0,0,1,8,4.12,14.1,14.1,0,0,1,5.24,5.75q3,6.69-2.64,11.55T443.93,134.2Z"/><path d="M520.63,132.16l.28.09.1.28-.19.28q-10.76,3.88-10.76-8.81V102.48a22.06,22.06,0,0,0-.51-4.68,22.55,22.55,0,0,0-1.85-5.1,9.87,9.87,0,0,0-4.36-4.36A13.6,13.6,0,0,0,496,87q-4.44.29-9.64,4.73t-5.19,8.53V129a3.64,3.64,0,0,0,1.25,2.87,4.9,4.9,0,0,0,3.38,1.11.25.25,0,0,1,.28.28.24.24,0,0,1-.28.28H471.39a.24.24,0,0,1-.28-.28.25.25,0,0,1,.28-.28,4.9,4.9,0,0,0,3.38-1.11A3.64,3.64,0,0,0,476,129V69.65a2.73,2.73,0,0,0-1.11-2.37,3.75,3.75,0,0,0-2.13-.79c-.25,0-.39-.07-.42-.23s.14-.26.51-.32q3.24-.37,8.26-6.12V93.58Q487.9,86.8,496,86.25q9.84-.65,14.52,4.08a15.2,15.2,0,0,1,4.68,11v18.45q0,7.25,1.07,9.79T520.63,132.16Z"/><path d="M531.3,105.54a39.36,39.36,0,0,0,.28,8.07q1.39,11,9.6,16.28t16.27,1.71a15.4,15.4,0,0,0,8.07-7.51,6.51,6.51,0,0,1,.88-1.53.71.71,0,0,1,.7-.23c.62.25.59.89-.09,2q-7,10.93-19.57,10.47a21.23,21.23,0,0,1-15.72-7.18q-6.08-6.82-6.08-17.49t6.45-17.25a22.12,22.12,0,0,1,16.37-6.49A20.81,20.81,0,0,1,561.4,91q6.08,4.68,7.18,13.58a1.5,1.5,0,0,1,0,.37.44.44,0,0,1-.19.28,1,1,0,0,1-.28.14l-.32.09a1.22,1.22,0,0,1-.37.05Zm16.32-18.36a14.23,14.23,0,0,0-11.36,4.91Q532,97,531.3,105H564q-.75-8.62-5.1-13.21A14.8,14.8,0,0,0,547.62,87.18Z"/><path d="M624.14,132.16l.28.09.09.28-.19.28q-9.18,3.33-10.48-5.2h-.09v.28a16.82,16.82,0,0,1-7,5.15A22,22,0,0,1,595,134.38q-9.37-1.29-14.19-8.11A27.74,27.74,0,0,1,576,109.81a21.83,21.83,0,0,1,.56-4.59,24.85,24.85,0,0,1,2.13-5.71,27.25,27.25,0,0,1,3.85-5.75,19.94,19.94,0,0,1,6.17-4.54,23.32,23.32,0,0,1,8.72-2.32,24.88,24.88,0,0,1,16.14,4.45V72.62a2.73,2.73,0,0,0-1.12-2.37,3.75,3.75,0,0,0-2.13-.79c-.25,0-.39-.07-.42-.23s.14-.26.51-.32q3.26-.37,8.26-6.12v57q0,7.25,1.06,9.79T624.14,132.16Zm-27.27,1.39c3.59.8,7.06-.05,10.44-2.55s5.45-5.39,6.26-8.67v-30q-8.07-4.74-15.12-3.62a20.06,20.06,0,0,0-8.77,3.53,16.48,16.48,0,0,0-5.33,6.21,33.56,33.56,0,0,0-2.36,6.4,22.66,22.66,0,0,0-.7,5.38,28.8,28.8,0,0,0,3.9,14.88A17.71,17.71,0,0,0,596.87,133.55Z"/><path d="M655.21,134.29A28.52,28.52,0,0,1,642.64,131a22.68,22.68,0,0,1-8.76-8.12q-1.68-3.24-.24-5.42a6.18,6.18,0,0,1,4.41-2.65c1.17-.3,1.76.13,1.76,1.3q-.64,8,3.43,12.62t12.06,4.91q10.38.38,16.46-5.28t3.2-13.08q-1.2-3.34-5.89-6.26a67.1,67.1,0,0,0-10.38-5.24q-5.72-2.32-11.23-5a29.34,29.34,0,0,1-9.13-6.63,12.42,12.42,0,0,1-3.43-9.09q.27-7,6.81-11.32t16-3.62a26.69,26.69,0,0,1,16.6,7c1.92,1.8,2.66,3.51,2.23,5.15a4.07,4.07,0,0,1-3.53,3c-1,.25-1.57-.18-1.76-1.29a14.18,14.18,0,0,0-4.08-9.51,13.71,13.71,0,0,0-9.46-3.66A22.15,22.15,0,0,0,644.45,72q-5.48,3.48-5.94,9a10.07,10.07,0,0,0,3.3,8,26.09,26.09,0,0,0,8.9,5.43q5.43,2.08,11.13,4.08a51,51,0,0,1,10.8,5.28,18.8,18.8,0,0,1,7.14,7.66q4.1,9.18-3.43,16.18T655.21,134.29Z"/><path d="M729.17,127.8a23.19,23.19,0,0,1-33.11,0,24.16,24.16,0,0,1-6.63-17.34q0-10.39,6.63-17.25a23.38,23.38,0,0,1,33.11,0q6.63,6.86,6.63,17.25A24.16,24.16,0,0,1,729.17,127.8Zm-6.35,3.43a15.92,15.92,0,0,0,9-11.31q2-8.07-2.09-16.88-4.44-9.2-12.24-13t-15.12-.37q-7,3.25-9,11.36t2.09,17q4.26,9.27,12,13A16.81,16.81,0,0,0,722.82,131.23Z"/><path d="M765.57,134.75a21.19,21.19,0,0,1-16.18-7.37q-6.36-7.18-6.17-17.76a24.71,24.71,0,0,1,6.49-16.37,20.7,20.7,0,0,1,15.12-6.91,25.18,25.18,0,0,1,17.07,5.57A5.85,5.85,0,0,1,784.12,95a3.56,3.56,0,0,1-.23,2.64,5.14,5.14,0,0,1-1.81,1.81c-.86.43-1.39.25-1.58-.56q-2.87-11.77-15.3-11.78-7.05,0-11.64,6.59T749,111.11q0,12.51,7.84,18.87t19.06,1.53q3.52-1.48,7.42-7.42c.12-.19.28-.43.46-.74.43-.8.84-1.15,1.21-1,.61.25.55.89-.19,2Q777.72,135.13,765.57,134.75Z"/><path d="M807.4,133a.25.25,0,0,1,.28.28.24.24,0,0,1-.28.28H793a.24.24,0,0,1-.28-.28A.25.25,0,0,1,793,133a4.9,4.9,0,0,0,3.38-1.11,3.64,3.64,0,0,0,1.25-2.87V95.15a2.7,2.7,0,0,0-1.11-2.36,3.68,3.68,0,0,0-2.13-.79c-.25,0-.39-.08-.42-.23s.14-.26.51-.33c2.16-.24,4.92-2.28,8.25-6.12V129a3.65,3.65,0,0,0,1.26,2.87A4.9,4.9,0,0,0,807.4,133Zm-7.88-58.33a3.16,3.16,0,0,1-2.37-1,3.38,3.38,0,0,1-1-2.41,3.33,3.33,0,0,1,1-2.46,3.23,3.23,0,0,1,2.37-1A3.33,3.33,0,0,1,803,71.23a3.42,3.42,0,0,1-1,2.41A3.26,3.26,0,0,1,799.52,74.66Z"/><path d="M819.83,105.54a39.36,39.36,0,0,0,.28,8.07q1.38,11,9.6,16.28T846,131.6a15.4,15.4,0,0,0,8.07-7.51,6.51,6.51,0,0,1,.88-1.53.71.71,0,0,1,.7-.23c.62.25.59.89-.09,2q-7,10.93-19.57,10.47a21.21,21.21,0,0,1-15.72-7.18q-6.07-6.82-6.08-17.49t6.45-17.25A22.11,22.11,0,0,1,837,86.34,20.78,20.78,0,0,1,849.92,91q6.08,4.68,7.19,13.58a1.5,1.5,0,0,1,0,.37.49.49,0,0,1-.19.28,1,1,0,0,1-.28.14l-.32.09a1.22,1.22,0,0,1-.37.05Zm16.32-18.36a14.22,14.22,0,0,0-11.36,4.91q-4.21,4.92-5,12.89h32.65q-.75-8.62-5.11-13.21A14.77,14.77,0,0,0,836.15,87.18Z"/><path d="M886.33,132.44h.28l.09.27-.19.28q-5.19,2.5-9.36-.14T873,124V91a2.82,2.82,0,0,0-1.11-2.41,3.57,3.57,0,0,0-2.13-.84H859.9v-.55h9.92c1.17-.13,2.41-1,3.71-2.51a64.93,64.93,0,0,0,4.54-6.3v8.81h6.4v.55h-6.4v34.69a13.56,13.56,0,0,0,1.86,7.61C881.16,131.88,883.3,132.68,886.33,132.44Z"/><path d="M942.07,87.18c.18,0,.27.09.27.28a.24.24,0,0,1-.27.27c-3.9,0-6.43,1-7.61,2.88l-20.22,50.45q-4.44,11.22-11.87,13.08a4.42,4.42,0,0,1-4.26-.84,5.27,5.27,0,0,1-1.86-3.61c.12-.93.56-1.3,1.3-1.12a31.13,31.13,0,0,0,5.94.84,8.05,8.05,0,0,0,5-1.53,10.88,10.88,0,0,0,3.71-5.24l3.62-9.28L897.46,90.89a7.35,7.35,0,0,0-5.85-3.16.24.24,0,0,1-.27-.27c0-.19.09-.28.27-.28h15a.25.25,0,0,1,.28.28.25.25,0,0,1-.28.27,7,7,0,0,0-2.78.42,1.2,1.2,0,0,0-.75,1.44l15.49,36.82L932.79,90a1.37,1.37,0,0,0-.88-1.72,8.42,8.42,0,0,0-3.29-.51c-.19,0-.28-.09-.28-.27a.24.24,0,0,1,.28-.28Z"/></svg>