<svg width="1000" height="218" viewBox="0 0 1000 218" fill="none" xmlns="http://www.w3.org/2000/svg">
<path d="M32.412 65C45.4416 65 55.6268 68.0832 62.9673 74.2495C70.3079 80.4159 73.9855 89.0222 74 100.068C74 111.662 70.3406 120.715 63.0219 127.229C55.7032 133.743 45.4962 137 32.4011 137H14.297C14.1006 137 14.0024 136.9 14.0024 136.689C13.9973 136.648 14.0014 136.607 14.0142 136.568C14.0271 136.528 14.0484 136.492 14.0767 136.463C14.1049 136.433 14.1394 136.41 14.1775 136.395C14.2156 136.381 14.2565 136.375 14.297 136.379C15.638 136.451 16.9572 136.012 17.9964 135.148C18.4415 134.751 18.7946 134.258 19.0304 133.706C19.2662 133.154 19.3789 132.555 19.3605 131.954V70.0351C19.3773 69.4353 19.2638 68.839 19.028 68.2889C18.7923 67.7387 18.44 67.2481 17.9964 66.8521C16.9557 65.9895 15.6385 65.5472 14.297 65.61C14.257 65.6155 14.2164 65.6115 14.1782 65.5984C14.1399 65.5853 14.1052 65.5634 14.0767 65.5344C14.0482 65.5054 14.0266 65.4702 14.0138 65.4313C14.0009 65.3925 13.997 65.3512 14.0024 65.3105C14.0024 65.0998 14.1006 65 14.297 65H32.412ZM24.9259 135.769H32.5647C43.5574 135.769 52.2257 132.701 58.5695 126.564C64.9134 120.427 68.2381 111.872 68.5437 100.9C68.6164 89.9205 65.4299 81.366 58.9842 75.2366C52.5385 69.1072 43.5465 66.0019 32.0082 65.9205H24.9259V135.769Z" fill="white"/>
<path d="M99.6957 136.365C99.7364 136.36 99.7777 136.364 99.8164 136.378C99.8552 136.392 99.8904 136.415 99.9194 136.445C99.9484 136.476 99.9703 136.513 99.9835 136.554C99.9967 136.594 100.001 136.638 99.9956 136.68C100.003 136.723 100.001 136.768 99.9885 136.81C99.9761 136.852 99.9542 136.89 99.9247 136.921C99.8952 136.952 99.8589 136.975 99.819 136.988C99.7791 137.001 99.7368 137.003 99.6957 136.995H84.3043C84.2632 137.003 84.2209 137.001 84.181 136.988C84.1411 136.975 84.1048 136.952 84.0753 136.921C84.0458 136.89 84.0239 136.852 84.0115 136.81C83.9992 136.768 83.9967 136.723 84.0044 136.68C83.9991 136.638 84.0033 136.594 84.0165 136.554C84.0297 136.513 84.0516 136.476 84.0806 136.445C84.1096 136.415 84.1448 136.392 84.1836 136.378C84.2224 136.364 84.2636 136.36 84.3043 136.365C85.6174 136.44 86.9093 135.994 87.9245 135.116C88.3637 134.717 88.7126 134.22 88.9461 133.662C89.1795 133.103 89.2916 132.497 89.2741 131.887V93.7762C89.3043 93.2631 89.2102 92.7503 89.0003 92.2859C88.7905 91.8214 88.472 91.4205 88.0745 91.1207C87.4223 90.579 86.6238 90.2679 85.7931 90.2318C85.5253 90.2318 85.3754 90.1418 85.3432 89.973C85.3111 89.8042 85.4932 89.6804 85.8895 89.6017C88.203 89.3316 91.1521 87.0362 94.7366 82.7154V131.864C94.7171 132.473 94.8271 133.079 95.0587 133.638C95.2903 134.197 95.6377 134.694 96.0755 135.094C97.0875 135.98 98.3798 136.434 99.6957 136.365V136.365ZM91.2556 70.7319C90.781 70.7419 90.3098 70.6468 89.8725 70.4529C89.4351 70.2591 89.0415 69.9708 88.7171 69.6067C88.033 68.887 87.6479 67.9121 87.6461 66.895C87.6368 66.3814 87.727 65.8713 87.9111 65.3955C88.0952 64.9196 88.3695 64.4881 88.7171 64.127C89.0443 63.7667 89.4385 63.481 89.8751 63.2874C90.3118 63.0939 90.7817 62.9966 91.2556 63.0018C91.743 62.9861 92.2283 63.0756 92.6815 63.2647C93.1347 63.4538 93.5461 63.7386 93.8904 64.1013C94.2347 64.4641 94.5046 64.8971 94.6833 65.3738C94.862 65.8504 94.9457 66.3605 94.9294 66.8725C94.9308 67.3765 94.8369 67.8758 94.653 68.3413C94.4691 68.8068 94.199 69.2293 93.8583 69.5842C93.5235 69.9533 93.1191 70.2449 92.671 70.4406C92.2228 70.6363 91.7408 70.7317 91.2556 70.7207V70.7319Z" fill="white"/>
<path d="M126.478 136.964C117.635 136.761 111.708 134.231 108.695 129.372C108.197 128.753 107.952 127.968 108.008 127.176C108.064 126.383 108.418 125.641 108.999 125.099C110.18 123.872 111.735 123.074 113.42 122.832C114.352 122.637 114.818 122.973 114.818 123.841C114.558 127.799 115.446 130.825 117.484 132.94C119.521 135.055 122.566 136.194 126.586 136.313C131.168 136.676 135.716 135.271 139.297 132.387C142.678 129.574 143.7 126.321 142.363 122.626C141.692 120.883 140.099 119.257 137.585 117.745C134.918 116.163 132.127 114.799 129.241 113.668C126.196 112.464 123.194 111.184 120.247 109.85C117.477 108.634 114.982 106.871 112.911 104.666C111.981 103.704 111.26 102.56 110.793 101.306C110.327 100.051 110.126 98.7137 110.202 97.3775C110.267 93.5454 112.073 90.458 115.62 88.1154C119.44 85.7131 123.95 84.6523 128.439 85.1003C135.201 85.498 140.359 87.208 143.913 90.2303C145.322 91.7053 145.668 93.1152 144.997 94.4601C144.659 95.1161 144.164 95.6788 143.558 96.0987C142.951 96.5186 142.251 96.7827 141.518 96.8678C141.353 96.9376 141.174 96.9655 140.996 96.9491C140.818 96.9326 140.647 96.8723 140.497 96.7735C140.348 96.6747 140.226 96.5405 140.141 96.3828C140.057 96.2252 140.012 96.049 140.012 95.87C139.941 94.5267 139.586 93.2138 138.972 92.0175C138.357 90.8212 137.497 89.7686 136.447 88.9288C134.187 87.0882 131.374 86.0608 128.461 86.0114C124.871 85.7555 121.279 86.4671 118.058 88.072C115.269 89.5759 113.846 91.6366 113.788 94.254C113.743 95.4662 113.958 96.674 114.418 97.7964C114.877 98.9188 115.572 99.9297 116.454 100.761C118.502 102.747 120.927 104.303 123.584 105.338C126.474 106.553 129.454 107.746 132.524 108.917C135.572 110.077 138.48 111.576 141.193 113.386C143.63 114.893 145.597 117.054 146.871 119.622C149.038 124.459 148.085 128.634 144.01 132.148C139.936 135.662 134.092 137.267 126.478 136.964Z" fill="white"/>
<path d="M181.6 135.038H181.903L182 135.338L181.805 135.649C178.047 137.501 174.667 137.449 171.666 135.494C168.665 133.539 167.157 130.262 167.143 125.663V89.0071C167.172 88.494 167.078 87.9814 166.868 87.5145C166.659 87.0477 166.341 86.6409 165.942 86.3301C165.294 85.7677 164.484 85.4398 163.637 85.397H153V84.7861H163.734C165.011 84.6417 166.342 83.6753 167.749 81.998C169.522 79.7658 171.165 77.4292 172.672 75V84.7861H179.598V85.397H172.705V123.93C172.548 126.889 173.244 129.829 174.707 132.384C176.027 134.427 178.325 135.312 181.6 135.038Z" fill="white"/>
<path d="M204.698 136.368C204.738 136.362 204.78 136.366 204.819 136.38C204.857 136.394 204.893 136.417 204.922 136.448C204.951 136.478 204.972 136.515 204.986 136.556C204.999 136.597 205.003 136.64 204.998 136.683C205.003 136.725 204.999 136.769 204.986 136.809C204.972 136.85 204.951 136.887 204.922 136.918C204.893 136.948 204.857 136.971 204.819 136.985C204.78 136.999 204.738 137.003 204.698 136.998H189.291C189.098 136.998 189.002 136.896 189.002 136.683C188.997 136.641 189.001 136.599 189.014 136.559C189.026 136.519 189.047 136.483 189.075 136.452C189.103 136.422 189.137 136.399 189.174 136.384C189.211 136.37 189.252 136.364 189.291 136.368C190.608 136.441 191.903 135.995 192.923 135.119C193.359 134.717 193.705 134.219 193.936 133.661C194.168 133.103 194.279 132.498 194.263 131.889V93.7768C194.299 93.2687 194.213 92.7591 194.012 92.2951C193.812 91.831 193.504 91.4273 193.116 91.1212C192.46 90.5793 191.658 90.2683 190.823 90.2322C190.566 90.2322 190.416 90.1422 190.384 89.9734C190.352 89.8046 190.534 89.6808 190.931 89.6021C193.245 89.332 196.191 87.0365 199.769 82.7155V131.867C199.753 132.475 199.864 133.08 200.096 133.638C200.327 134.196 200.673 134.694 201.109 135.096C202.115 135.97 203.393 136.423 204.698 136.368V136.368ZM196.255 70.7316C195.781 70.7415 195.309 70.6465 194.872 70.4526C194.434 70.2587 194.041 69.9704 193.716 69.6063C193.375 69.2514 193.105 68.8289 192.921 68.3634C192.737 67.8978 192.643 67.3985 192.645 66.8945C192.633 66.3806 192.722 65.8696 192.906 65.3934C193.091 64.9172 193.366 64.4859 193.716 64.1264C194.043 63.7661 194.438 63.4804 194.874 63.2868C195.311 63.0932 195.781 62.996 196.255 63.0011C196.742 62.9887 197.226 63.0804 197.678 63.2707C198.13 63.461 198.54 63.7459 198.884 64.108C199.228 64.4701 199.498 64.9018 199.678 65.377C199.857 65.8522 199.943 66.3608 199.93 66.872C199.931 67.3759 199.837 67.875 199.653 68.3405C199.469 68.806 199.199 69.2285 198.859 69.5838C198.524 69.9534 198.12 70.2455 197.671 70.4412C197.223 70.6369 196.741 70.732 196.255 70.7203V70.7316Z" fill="white"/>
<path d="M267.592 135.261L267.901 135.362L268 135.674L267.801 135.986C259.897 138.872 255.941 135.596 255.933 126.158V102.15C255.946 98.3525 255.049 94.6087 253.319 91.2388C252.275 89.1403 250.593 87.4356 248.521 86.3746C246.01 85.1206 243.201 84.6028 240.414 84.8797C237.134 85.0954 233.59 86.8544 229.781 90.1566C225.972 93.4589 224.06 96.6309 224.046 99.6729V131.736C224.028 132.34 224.143 132.942 224.383 133.495C224.624 134.049 224.983 134.542 225.435 134.938C226.481 135.808 227.811 136.25 229.163 136.176C229.205 136.171 229.248 136.175 229.288 136.189C229.328 136.202 229.364 136.225 229.394 136.255C229.424 136.286 229.446 136.322 229.46 136.363C229.473 136.403 229.478 136.446 229.472 136.488C229.48 136.531 229.478 136.575 229.465 136.617C229.452 136.658 229.43 136.696 229.399 136.727C229.369 136.758 229.331 136.781 229.29 136.793C229.249 136.806 229.206 136.809 229.163 136.801H213.313C213.271 136.809 213.227 136.806 213.186 136.793C213.145 136.781 213.108 136.758 213.078 136.727C213.047 136.696 213.025 136.658 213.012 136.617C212.999 136.575 212.997 136.531 213.005 136.488C212.999 136.446 213.003 136.403 213.017 136.363C213.031 136.322 213.053 136.286 213.083 136.255C213.113 136.225 213.149 136.202 213.189 136.189C213.229 136.175 213.271 136.171 213.313 136.176C214.666 136.25 215.996 135.808 217.041 134.938C217.492 134.541 217.85 134.048 218.089 133.494C218.327 132.94 218.44 132.34 218.42 131.736V91.9081C218.454 91.4043 218.372 90.8993 218.181 90.4328C217.99 89.9663 217.694 89.551 217.317 89.2195C216.63 88.6212 215.773 88.258 214.869 88.1819C214.593 88.1819 214.438 88.0927 214.405 87.9254C214.372 87.758 214.56 87.6353 214.968 87.5572C218.263 87.255 221.412 86.039 224.068 84.043V91.8524C226.307 89.6095 228.921 87.7852 231.789 86.4639C234.52 85.1471 237.465 84.342 240.48 84.0876C247.716 83.6042 253.054 85.1214 256.496 88.6394C258.132 90.2258 259.432 92.1312 260.32 94.2405C261.207 96.3497 261.662 98.619 261.658 100.911V121.494C261.658 126.887 262.051 130.527 262.838 132.416C263.625 134.306 265.209 135.254 267.592 135.261Z" fill="white"/>
<path d="M314.442 87.7083C314.574 84.1747 316.103 81.8227 319.029 80.6523C321.405 79.6086 323.345 79.8174 324.849 81.2785C325.291 81.7575 325.62 82.3328 325.811 82.9607C326.002 83.5886 326.049 84.2524 325.949 84.9016C325.806 85.9415 325.399 86.2211 324.717 85.7402C318.798 82.0725 315.534 82.8179 314.926 87.9767C318.137 90.3049 320.617 93.5285 322.065 97.258C323.501 101.005 323.785 105.107 322.88 109.022C322.258 111.724 321.065 114.256 319.384 116.442C317.703 118.628 315.573 120.415 313.144 121.68C307.901 124.509 301.825 125.304 296.048 123.917C292.055 123.13 288.33 121.308 285.234 118.627C282.847 120.349 281.658 122.206 281.658 124.218C281.658 126.231 282.891 127.83 285.333 129.15C286.567 129.767 287.895 130.168 289.26 130.335C290.866 130.581 293.122 130.794 296.048 130.961C298.974 131.129 301.086 131.286 302.374 131.431C309.854 132.259 315.501 134.174 319.315 137.179C323.129 140.183 325.032 143.832 325.025 148.126C325.025 152.129 322.762 155.603 318.237 158.548C313.712 161.493 308.156 162.976 301.57 162.999C295.986 163.051 290.49 161.583 285.652 158.749C280.819 155.909 277.793 152.521 276.576 148.585C276.098 147.188 275.914 145.704 276.037 144.23C276.16 142.756 276.588 141.325 277.291 140.03C279.015 137.006 281.617 134.596 284.739 133.131C281.735 130.894 280.25 128.345 280.25 125.404C280.25 122.463 281.735 120.103 284.739 118.303C279.084 112.98 277.144 106.48 278.919 98.8012C279.527 96.0612 280.707 93.486 282.379 91.25C284.051 89.0139 286.177 87.1693 288.611 85.8409C293.724 82.9945 299.727 82.2884 305.344 83.8728C308.605 84.4977 311.703 85.8038 314.442 87.7083V87.7083ZM320.151 113.741C322.352 110.013 322.469 105.984 320.503 101.653C318.538 97.3214 315.087 93.7803 310.151 91.0295C304.233 87.9879 298.538 86.7951 293.067 87.4511C287.595 88.1072 283.701 90.4405 281.383 94.4512C279.469 98.1116 279.469 102.07 281.383 106.327C283.498 110.839 287.033 114.507 291.427 116.749C296.652 119.641 302.594 120.92 308.523 120.428C313.965 119.839 317.841 117.61 320.151 113.741ZM305.047 137.223C303.353 136.948 301.075 136.653 298.215 136.34C295.355 136.027 292.957 135.699 291.02 135.356C289.392 135.102 287.8 134.647 286.279 134.003C283.851 135.55 282.015 137.894 281.075 140.645C280.121 143.354 280.082 146.309 280.965 149.043C281.86 152.152 284.09 155.022 287.654 157.654C291.102 160.232 295.175 161.809 299.436 162.216C305.01 162.909 309.722 161.992 313.573 159.465C317.412 156.949 319.337 153.673 319.337 149.669C319.337 143.415 314.574 139.285 305.047 137.279V137.223Z" fill="white"/>
<path d="M387.589 135.197L387.9 135.297L388 135.61L387.8 135.922C380.451 138.674 376.503 136.156 375.955 128.369C373.65 130.675 370.993 132.596 368.084 134.059C365.382 135.49 362.424 136.37 359.381 136.647C352.099 137.123 346.726 135.606 343.262 132.095C341.616 130.508 340.307 128.602 339.415 126.493C338.522 124.384 338.063 122.114 338.067 119.822V95.9677C338.098 95.4584 338.002 94.9495 337.786 94.4874C337.571 94.0254 337.244 93.6251 336.835 93.3234C336.152 92.7907 335.322 92.4829 334.459 92.4419C334.192 92.4419 334.037 92.3638 334.004 92.1853C333.97 92.0068 334.159 91.8952 334.57 91.8283C336.968 91.5531 340.021 89.277 343.728 85V118.528C343.716 122.325 344.618 126.069 346.359 129.44C347.411 131.541 349.108 133.247 351.2 134.304C353.731 135.571 356.568 136.09 359.381 135.799C362.674 135.598 366.242 133.839 370.083 130.522C373.924 127.204 375.848 124.032 375.855 121.005V95.9677C375.887 95.4584 375.79 94.9495 375.575 94.4874C375.36 94.0254 375.032 93.6251 374.623 93.3234C373.939 92.7926 373.11 92.485 372.247 92.4419C371.97 92.4419 371.826 92.3638 371.781 92.1853C371.737 92.0068 371.937 91.8952 372.358 91.8283C374.756 91.5531 377.809 89.277 381.517 85V121.418C381.517 126.807 381.905 130.444 382.705 132.341C383.504 134.237 385.125 135.197 387.589 135.197Z" fill="white"/>
<path d="M411.696 136.365C411.736 136.36 411.778 136.364 411.816 136.378C411.855 136.392 411.89 136.415 411.919 136.445C411.948 136.476 411.97 136.513 411.984 136.554C411.997 136.594 412.001 136.638 411.996 136.68C412.003 136.723 412.001 136.768 411.988 136.81C411.976 136.852 411.954 136.89 411.925 136.921C411.895 136.952 411.859 136.975 411.819 136.988C411.779 137.001 411.737 137.003 411.696 136.995H396.304C396.263 137.003 396.221 137.001 396.181 136.988C396.141 136.975 396.105 136.952 396.075 136.921C396.046 136.89 396.024 136.852 396.012 136.81C395.999 136.768 395.997 136.723 396.004 136.68C395.999 136.638 396.003 136.594 396.016 136.554C396.03 136.513 396.052 136.476 396.081 136.445C396.11 136.415 396.145 136.392 396.184 136.378C396.222 136.364 396.264 136.36 396.304 136.365C397.617 136.44 398.909 135.994 399.925 135.116C400.364 134.717 400.713 134.22 400.946 133.662C401.18 133.103 401.292 132.497 401.274 131.887V93.7762C401.304 93.2631 401.21 92.7503 401 92.2859C400.791 91.8214 400.472 91.4205 400.074 91.1207C399.422 90.579 398.624 90.2679 397.793 90.2318C397.525 90.2318 397.375 90.1418 397.343 89.973C397.311 89.8042 397.493 89.6804 397.889 89.6017C400.21 89.3316 403.159 87.0362 406.737 82.7154V131.864C406.717 132.473 406.827 133.079 407.059 133.638C407.29 134.197 407.638 134.694 408.075 135.094C409.088 135.98 410.38 136.434 411.696 136.365V136.365ZM403.256 70.7319C402.783 70.7424 402.313 70.6475 401.877 70.4536C401.441 70.2597 401.05 69.971 400.728 69.6067C400.388 69.2514 400.118 68.8289 399.934 68.3634C399.75 67.898 399.656 67.3989 399.657 66.895C399.646 66.3812 399.735 65.8704 399.919 65.3943C400.103 64.9182 400.379 64.4869 400.728 64.127C401.053 63.7671 401.445 63.4814 401.88 63.2878C402.315 63.0942 402.783 62.9968 403.256 63.0018C403.743 62.9861 404.228 63.0756 404.681 63.2647C405.135 63.4538 405.546 63.7386 405.89 64.1013C406.235 64.4641 406.505 64.8971 406.683 65.3738C406.862 65.8504 406.946 66.3605 406.929 66.8725C406.931 67.3765 406.837 67.8758 406.653 68.3413C406.469 68.8068 406.199 69.2293 405.858 69.5842C405.523 69.9533 405.119 70.2449 404.671 70.4406C404.223 70.6363 403.741 70.7317 403.256 70.7207V70.7319Z" fill="white"/>
<path d="M439.473 136.964C430.633 136.761 424.707 134.231 421.695 129.372C421.197 128.753 420.952 127.968 421.008 127.176C421.064 126.383 421.418 125.641 421.999 125.099C423.179 123.872 424.734 123.074 426.419 122.832C427.35 122.637 427.827 122.973 427.827 123.841C427.556 127.799 428.444 130.825 430.481 132.94C432.518 135.055 435.562 136.194 439.581 136.313C444.162 136.678 448.709 135.273 452.288 132.387C455.668 129.574 456.69 126.321 455.354 122.626C454.682 120.883 453.09 119.257 450.577 117.745C447.911 116.163 445.121 114.799 442.235 113.668C439.191 112.464 436.19 111.184 433.243 109.85C430.476 108.632 427.982 106.869 425.909 104.666C424.983 103.702 424.265 102.557 423.799 101.303C423.333 100.05 423.13 98.7133 423.201 97.3775C423.266 93.5454 425.072 90.458 428.618 88.1154C432.436 85.7131 436.946 84.6523 441.433 85.1003C448.193 85.498 453.35 87.208 456.903 90.2303C458.312 91.6764 458.673 93.0863 457.987 94.4601C457.65 95.1147 457.157 95.6765 456.553 96.0963C455.948 96.5161 455.25 96.781 454.52 96.8678C454.355 96.9376 454.176 96.9655 453.998 96.9491C453.82 96.9326 453.649 96.8723 453.5 96.7735C453.35 96.6747 453.228 96.5405 453.143 96.3828C453.059 96.2252 453.014 96.049 453.014 95.87C452.938 94.5266 452.58 93.2143 451.965 92.0185C451.349 90.8226 450.488 89.7699 449.439 88.9288C447.179 87.0882 444.368 86.0608 441.455 86.0114C437.867 85.7582 434.276 86.4696 431.055 88.072C428.275 89.5759 426.852 91.6366 426.787 94.254C426.744 95.4659 426.959 96.6732 427.419 97.7952C427.878 98.9173 428.571 99.9284 429.452 100.761C431.499 102.747 433.923 104.303 436.58 105.338C439.469 106.553 442.452 107.746 445.528 108.917C448.574 110.079 451.481 111.577 454.195 113.386C456.634 114.89 458.601 117.051 459.872 119.622C462.038 124.459 461.085 128.634 457.012 132.148C452.938 135.662 447.092 137.267 439.473 136.964Z" fill="white"/>
<path d="M523.581 135.271L523.89 135.37L524 135.681L523.791 135.992C515.885 138.862 511.932 135.603 511.932 126.216V102.337C511.929 100.591 511.741 98.8496 511.37 97.1437C510.919 95.1816 510.234 93.2815 509.331 91.4846C508.283 89.3967 506.599 87.7013 504.526 86.6466C502.02 85.4014 499.218 84.8864 496.436 85.1597C493.174 85.3743 489.632 87.1238 485.812 90.4083C481.991 93.6928 480.084 96.8478 480.092 99.8734V131.764C480.072 132.365 480.185 132.962 480.423 133.513C480.662 134.064 481.019 134.555 481.469 134.949C482.514 135.815 483.843 136.254 485.195 136.18C485.236 136.175 485.279 136.179 485.319 136.193C485.359 136.207 485.395 136.229 485.425 136.259C485.455 136.289 485.477 136.326 485.491 136.366C485.504 136.406 485.509 136.449 485.503 136.491C485.511 136.534 485.509 136.578 485.496 136.619C485.483 136.66 485.461 136.698 485.43 136.728C485.4 136.759 485.362 136.782 485.321 136.795C485.28 136.807 485.237 136.81 485.195 136.802H469.313C469.271 136.81 469.227 136.807 469.186 136.795C469.145 136.782 469.108 136.759 469.077 136.728C469.047 136.698 469.025 136.66 469.012 136.619C468.999 136.578 468.997 136.534 469.004 136.491C468.999 136.449 469.003 136.406 469.017 136.366C469.031 136.326 469.053 136.289 469.083 136.259C469.113 136.229 469.149 136.207 469.189 136.193C469.229 136.179 469.271 136.175 469.313 136.18C470.664 136.254 471.994 135.815 473.038 134.949C473.485 134.552 473.838 134.061 474.072 133.51C474.307 132.959 474.417 132.363 474.394 131.764V65.9077C474.425 65.4012 474.329 64.895 474.116 64.4355C473.902 63.976 473.577 63.578 473.171 63.2778C472.497 62.7483 471.677 62.442 470.823 62.4012C470.547 62.4012 470.393 62.3236 470.36 62.146C470.327 61.9685 470.514 61.8575 470.922 61.7909C473.303 61.5172 476.337 59.2536 480.026 55V92.4611C485.015 87.4456 490.485 84.7344 496.436 84.3275C503.666 83.8467 509 85.3558 512.439 88.8548C514.073 90.4327 515.373 92.3279 516.26 94.4258C517.146 96.5237 517.601 98.7808 517.597 101.061V121.533C517.597 126.897 517.99 130.518 518.776 132.397C519.562 134.276 521.164 135.234 523.581 135.271Z" fill="white"/>
<path d="M535.193 105.965C534.993 108.911 535.095 111.87 535.5 114.795C536.514 122.819 540.016 128.756 546.005 132.607C551.994 136.459 557.929 137.082 563.808 134.478C567.665 132.923 570.81 129.996 572.639 126.261C572.883 125.662 573.206 125.099 573.602 124.587C573.694 124.479 573.815 124.399 573.95 124.354C574.085 124.31 574.229 124.304 574.368 124.336C575.046 124.609 575.014 125.31 574.269 126.524C569.163 134.497 562.025 138.315 552.855 137.98C549.597 137.95 546.382 137.235 543.418 135.881C540.455 134.528 537.809 132.566 535.653 130.124C531.218 125.149 529 118.77 529 110.987C529 103.204 531.353 96.9129 536.058 92.1133C538.398 89.7664 541.196 87.9251 544.277 86.7037C547.359 85.4822 550.658 84.9065 553.971 85.0123C559.126 85.0427 564.118 86.8209 568.131 90.0563C572.566 93.47 575.185 98.4229 575.987 104.915C576.004 105.049 576.004 105.185 575.987 105.32C575.975 105.382 575.95 105.441 575.914 105.494C575.878 105.546 575.833 105.591 575.78 105.626C575.686 105.693 575.583 105.744 575.473 105.779L575.123 105.878C574.992 105.916 574.855 105.935 574.718 105.932L535.193 105.965ZM553.052 85.8767C550.709 85.7785 548.374 86.2106 546.222 87.1409C544.069 88.0711 542.155 89.4754 540.621 91.2489C537.513 94.8304 535.704 99.5389 535.193 105.374H570.976C570.429 99.0866 568.568 94.2688 565.395 90.9207C563.814 89.2521 561.895 87.9392 559.767 87.0696C557.638 86.1999 555.349 85.7932 553.052 85.8767V85.8767Z" fill="white"/>
<path d="M637.596 135.221L637.902 135.322L638 135.633L637.792 135.945C631.108 138.416 627.292 136.487 626.345 130.156H626.247V130.468C624.235 133.029 621.599 135.006 618.601 136.201C614.537 137.883 610.098 138.399 605.767 137.693C598.944 136.735 593.777 133.726 590.267 128.665C586.661 123.276 584.822 116.862 585.014 110.342C585.039 108.621 585.244 106.909 585.625 105.232C586.142 103.024 586.923 100.89 587.952 98.8761C589.081 96.569 590.494 94.4181 592.157 92.4753C594.062 90.3626 596.351 88.6463 598.896 87.4214C601.876 85.9368 605.111 85.0595 608.421 84.8388C614.683 84.3649 620.912 86.1153 626.05 89.7925V68.9426C626.08 68.4335 625.984 67.9251 625.77 67.464C625.556 67.003 625.232 66.6042 624.827 66.3043C624.159 65.7731 623.347 65.4659 622.501 65.4249C622.227 65.4249 622.075 65.347 622.042 65.1689C622.009 64.9908 622.195 64.8795 622.599 64.8127C624.973 64.5381 627.98 62.2672 631.621 58V121.451C631.621 126.832 632.007 130.464 632.779 132.349C633.551 134.234 635.156 135.192 637.596 135.221ZM607.809 136.769C611.731 137.659 615.521 136.713 619.213 133.93C622.905 131.147 625.166 127.93 626.05 124.279V90.8834C620.174 87.3658 614.669 86.0225 609.535 86.8537C606.081 87.3671 602.796 88.7143 599.956 90.7832C597.476 92.552 595.473 94.9296 594.134 97.6961C593.04 99.9755 592.176 102.363 591.556 104.82C591.067 106.778 590.81 108.789 590.792 110.809C590.712 116.622 592.184 122.348 595.052 127.374C596.413 129.763 598.253 131.835 600.45 133.453C602.648 135.072 605.156 136.202 607.809 136.769V136.769Z" fill="white"/>
<path d="M671.424 136.983C666.604 136.858 661.879 135.635 657.616 133.409C653.669 131.372 650.347 128.326 647.994 124.589C646.763 122.243 646.676 120.28 647.73 118.701C648.281 117.906 648.999 117.237 649.835 116.74C650.671 116.243 651.605 115.93 652.574 115.823C653.859 115.497 654.507 115.964 654.507 117.235C654.039 123.028 655.295 127.598 658.275 130.943C661.256 134.289 665.671 136.067 671.522 136.277C679.124 136.552 685.15 134.64 689.603 130.541C694.055 126.443 695.227 121.707 693.118 116.333C692.239 113.915 690.082 111.648 686.648 109.533C683.021 107.313 679.206 105.409 675.246 103.842C671.057 102.161 666.946 100.351 662.911 98.4103C659.128 96.674 655.722 94.2282 652.882 91.2085C651.615 89.8975 650.628 88.3475 649.981 86.651C649.334 84.9544 649.039 83.1463 649.114 81.3345C649.312 76.2654 651.805 72.1666 656.595 69.0382C661.384 65.9098 667.242 64.5991 674.17 65.106C680.955 65.4741 687.401 68.1619 692.404 72.7097C694.513 74.665 695.326 76.5225 694.853 78.3039C694.619 79.1725 694.122 79.9498 693.429 80.5321C692.736 81.1143 691.881 81.4738 690.976 81.5626C689.877 81.8342 689.251 81.3671 689.043 80.1614C688.918 76.2826 687.317 72.5933 684.561 69.8312C681.738 67.241 678.02 65.8183 674.17 65.8555C669.067 65.4669 663.97 66.6795 659.604 69.3207C655.591 71.8407 653.416 75.0995 653.079 79.0969C652.993 80.7207 653.273 82.3433 653.9 83.8466C654.527 85.3498 655.485 86.6959 656.704 87.7868C659.529 90.3833 662.854 92.3895 666.481 93.6851C670.457 95.1914 674.532 96.6687 678.706 98.117C682.875 99.5596 686.857 101.485 690.569 103.852C693.928 105.835 696.648 108.721 698.412 112.173C701.415 118.821 700.159 124.679 694.645 129.749C689.13 134.818 681.39 137.229 671.424 136.983Z" fill="white"/>
<path d="M752.843 130.39C750.516 132.8 747.74 134.714 744.676 136.02C741.612 137.327 738.323 138 735 138C731.677 138 728.388 137.327 725.324 136.02C722.26 134.714 719.484 132.8 717.157 130.39C714.792 127.861 712.944 124.882 711.717 121.624C710.491 118.366 709.911 114.893 710.011 111.407C710.011 103.824 712.393 97.5287 717.157 92.5219C719.498 90.1376 722.279 88.2459 725.341 86.9552C728.402 85.6644 731.685 85 735 85C738.315 85 741.598 85.6644 744.659 86.9552C747.721 88.2459 750.502 90.1376 752.843 92.5219C757.607 97.5287 759.989 103.824 759.989 111.407C760.089 114.893 759.509 118.366 758.283 121.624C757.056 124.882 755.208 127.861 752.843 130.39V130.39ZM745.999 134.145C748.463 133.005 750.626 131.289 752.312 129.137C753.998 126.985 755.159 124.458 755.699 121.763C757.136 115.874 756.385 109.714 753.447 103.284C750.256 96.5689 745.859 91.8249 740.254 89.0515C734.65 86.278 729.218 86.143 723.958 88.6464C718.928 91.0184 715.695 95.164 714.258 101.083C712.821 107.002 713.571 113.206 716.51 119.694C719.571 126.46 723.882 131.204 729.444 133.926C731.988 135.296 734.816 136.031 737.695 136.069C740.574 136.107 743.421 135.448 745.999 134.145V134.145Z" fill="white"/>
<path d="M792.374 137.986C789.027 138.004 785.716 137.293 782.67 135.901C779.624 134.509 776.916 132.47 774.733 129.924C770.11 124.688 767.868 118.213 768.006 110.498C768.093 103.86 770.612 97.4861 775.082 92.5917C777.16 90.2572 779.698 88.3802 782.535 87.0793C785.372 85.7783 788.448 85.0817 791.567 85.0333C798.306 84.7006 804.931 86.8696 810.178 91.126C811.338 91.9506 812.189 93.1402 812.598 94.5059C812.888 95.465 812.798 96.4993 812.348 97.3936C811.867 98.21 811.188 98.891 810.374 99.3735C809.437 99.8438 808.859 99.6469 808.652 98.7609C806.565 90.178 801.005 85.8828 791.97 85.8756C786.846 85.8756 782.616 88.2783 779.28 93.0839C775.943 97.8895 774.286 104.237 774.308 112.128C774.308 121.25 777.157 128.13 782.856 132.768C788.554 137.406 795.481 137.964 803.636 134.442C806.195 133.363 808.891 130.657 811.726 126.326C811.857 126.118 812.031 125.855 812.228 125.516C812.697 124.641 813.143 124.258 813.547 124.422C814.212 124.696 814.147 125.396 813.34 126.61C808.194 134.471 801.205 138.263 792.374 137.986Z" fill="white"/>
<path d="M838.696 136.365C838.737 136.36 838.778 136.364 838.817 136.378C838.856 136.392 838.891 136.415 838.92 136.445C838.948 136.476 838.97 136.513 838.984 136.554C838.997 136.594 839.001 136.638 838.996 136.68C839.003 136.723 839.001 136.768 838.989 136.81C838.976 136.852 838.954 136.89 838.925 136.921C838.895 136.952 838.859 136.975 838.819 136.988C838.78 137.001 838.737 137.003 838.696 136.995H823.304C823.263 137.003 823.22 137.001 823.181 136.988C823.141 136.975 823.105 136.952 823.075 136.921C823.046 136.89 823.024 136.852 823.012 136.81C822.999 136.768 822.997 136.723 823.004 136.68C822.999 136.638 823.003 136.594 823.016 136.554C823.03 136.513 823.052 136.476 823.08 136.445C823.109 136.415 823.145 136.392 823.183 136.378C823.222 136.364 823.263 136.36 823.304 136.365C824.614 136.44 825.904 135.994 826.917 135.116C827.354 134.717 827.7 134.219 827.931 133.661C828.163 133.102 828.272 132.496 828.253 131.887V93.7774C828.284 93.2654 828.192 92.7533 827.984 92.2889C827.777 91.8246 827.461 91.4231 827.066 91.122C826.415 90.5804 825.619 90.2692 824.79 90.2331C824.522 90.2331 824.373 90.1431 824.341 89.9743C824.308 89.8056 824.49 89.6818 824.886 89.603C827.195 89.333 830.145 87.0376 833.704 82.717V131.865C833.687 132.474 833.799 133.081 834.032 133.639C834.265 134.198 834.613 134.695 835.051 135.094C836.07 135.988 837.372 136.443 838.696 136.365V136.365ZM830.273 70.7338C829.8 70.7438 829.329 70.6487 828.893 70.4549C828.456 70.261 828.063 69.9727 827.74 69.6087C827.4 69.2538 827.13 68.8313 826.947 68.3658C826.763 67.9003 826.669 67.401 826.671 66.897C826.659 66.3831 826.748 65.8722 826.932 65.396C827.116 64.9198 827.391 64.4886 827.74 64.1291C828.066 63.7689 828.46 63.4831 828.895 63.2896C829.331 63.096 829.8 62.9988 830.273 63.0039C830.763 62.9804 831.252 63.0637 831.71 63.2486C832.168 63.4335 832.585 63.716 832.934 64.0783C833.283 64.4407 833.558 64.8751 833.74 65.3543C833.922 65.8336 834.008 66.3473 833.993 66.8632C833.991 67.8803 833.607 68.8552 832.924 69.5749C832.585 69.9531 832.173 70.2511 831.716 70.4489C831.259 70.6468 830.767 70.7401 830.273 70.7226V70.7338Z" fill="white"/>
<path d="M852.306 105.997C852.101 108.94 852.206 111.896 852.619 114.818C853.648 122.834 857.225 128.765 863.352 132.613C869.479 136.46 875.55 137.083 881.566 134.482C885.506 132.928 888.72 130.004 890.588 126.273C890.837 125.675 891.168 125.112 891.572 124.601C891.667 124.493 891.79 124.412 891.928 124.368C892.066 124.324 892.213 124.317 892.355 124.349C893.048 124.623 893.014 125.322 892.254 126.535C887.037 134.5 879.743 138.315 870.374 137.98C867.045 137.951 863.759 137.237 860.731 135.885C857.703 134.533 855 132.573 852.798 130.132C848.273 125.162 846.007 118.789 846 111.014C845.993 103.239 848.396 96.9539 853.212 92.1591C855.596 89.8055 858.451 87.9564 861.597 86.7266C864.744 85.4969 868.116 84.9128 871.503 85.0105C876.769 85.0587 881.863 86.8547 885.948 90.1041C890.48 93.5145 893.16 98.4623 893.987 104.948C894.004 105.082 894.004 105.218 893.987 105.352C893.956 105.476 893.88 105.584 893.775 105.658C893.679 105.725 893.574 105.777 893.462 105.811L893.104 105.91C892.97 105.948 892.83 105.967 892.69 105.964L852.306 105.997ZM870.553 85.9287C868.159 85.8298 865.773 86.2611 863.574 87.1905C861.374 88.1198 859.418 89.5232 857.851 91.2956C854.713 94.8808 852.85 99.5772 852.261 105.385H888.766C888.207 99.1036 886.302 94.2905 883.053 90.9458C881.449 89.2951 879.506 87.9948 877.352 87.1301C875.197 86.2655 872.88 85.856 870.553 85.9287V85.9287Z" fill="white"/>
<path d="M926.586 135.038H926.899L927 135.338L926.787 135.649C922.914 137.501 919.422 137.449 916.31 135.494C913.198 133.539 911.649 130.262 911.664 125.663V89.0071C911.694 88.494 911.597 87.9814 911.38 87.5145C911.163 87.0477 910.834 86.6409 910.422 86.3301C909.752 85.7677 908.914 85.4398 908.037 85.397H897V84.7861H908.104C909.414 84.6417 910.802 83.6753 912.257 81.998C914.091 79.768 915.788 77.4312 917.34 75V84.7861H924.504V85.397H917.34V123.93C917.18 126.89 917.905 129.831 919.422 132.384C920.798 134.416 923.194 135.305 926.586 135.038Z" fill="white"/>
<path d="M986.701 85.0023C986.899 85.0023 986.998 85.1014 986.998 85.3107C987.003 85.351 986.999 85.3921 986.986 85.4306C986.973 85.4692 986.951 85.5042 986.923 85.533C986.894 85.5618 986.859 85.5836 986.821 85.5966C986.782 85.6096 986.741 85.6135 986.701 85.6081C982.419 85.6081 979.641 86.7095 978.346 88.7802L956.145 144.348C952.895 152.587 948.551 157.389 943.113 158.755C942.32 159.017 941.472 159.07 940.653 158.908C939.834 158.746 939.07 158.374 938.435 157.83C937.85 157.335 937.368 156.729 937.017 156.047C936.667 155.364 936.455 154.619 936.393 153.853C936.525 152.829 937.008 152.421 937.821 152.62C939.96 153.138 942.144 153.448 944.342 153.545C946.308 153.612 948.24 153.019 949.832 151.86C951.738 150.391 953.157 148.379 953.906 146.088L957.88 135.867L937.722 89.0886C936.999 88.0429 936.041 87.1828 934.925 86.5781C933.809 85.9734 932.567 85.641 931.299 85.6081C931.259 85.6135 931.218 85.6096 931.179 85.5966C931.141 85.5836 931.106 85.5618 931.077 85.533C931.048 85.5042 931.027 85.4692 931.014 85.4306C931.001 85.3921 930.997 85.351 931.002 85.3107C931.002 85.1014 931.101 85.0023 931.299 85.0023H947.768C947.81 84.9969 947.852 85.0011 947.892 85.0147C947.931 85.0283 947.968 85.0509 947.997 85.0807C948.027 85.1104 948.049 85.1467 948.063 85.1866C948.077 85.2264 948.081 85.2689 948.075 85.3107C948.079 85.3516 948.073 85.3928 948.059 85.4313C948.045 85.4698 948.022 85.5045 947.993 85.533C947.963 85.5616 947.928 85.5831 947.889 85.5961C947.85 85.6091 947.809 85.6132 947.768 85.6081C946.73 85.5536 945.691 85.711 944.716 86.0707C944.405 86.1835 944.148 86.4091 943.996 86.7028C943.843 86.9965 943.806 87.3369 943.892 87.6567L960.899 128.212L976.512 88.1083C976.633 87.7286 976.6 87.3161 976.419 86.9611C976.238 86.6062 975.924 86.3375 975.546 86.2139C974.391 85.7873 973.163 85.5963 971.934 85.6521C971.725 85.6521 971.626 85.553 971.626 85.3547C971.619 85.3125 971.621 85.269 971.634 85.228C971.646 85.187 971.669 85.1496 971.699 85.1193C971.729 85.0889 971.767 85.0664 971.807 85.0537C971.848 85.041 971.892 85.0384 971.934 85.0463L986.701 85.0023Z" fill="white"/>
</svg>
