<svg width="1000" height="1000" viewBox="0 0 1000 1000" fill="none" xmlns="http://www.w3.org/2000/svg">
<path d="M614.29 514.161C608.899 509.811 603.117 505.461 596.9 500.872C600.9 498.566 604.769 496.109 608.551 493.455C638.983 472.184 661.822 446.432 677.067 416.2C692.312 385.968 699.957 357.795 700 331.681C700 293.982 691.305 260.494 673.915 231.219C656.6 202.053 631.484 178.308 601.4 162.664C570.46 146.25 535.217 138.029 495.669 138C469.584 138 456.542 140.893 440.609 146.7C423.004 153.324 406.787 163.17 392.786 175.736C378.676 188.421 367.109 203.678 358.702 220.692C348.827 240.501 343.855 262.394 344.203 284.528C344.066 300.534 346.518 316.458 351.464 331.681C357.425 349.937 366.768 366.908 379.005 381.705C384.596 388.304 390.678 394.469 397.199 400.149C404.014 406.296 411.281 411.923 418.936 416.983C422.632 419.376 426.544 421.747 430.283 424.074C434.038 426.495 437.666 429.109 441.152 431.904V491.976C441.152 501.648 439.464 509.383 436.087 515.183C435.139 516.985 434.071 518.722 432.892 520.381C431.812 521.733 430.475 522.857 428.957 523.687C427.121 524.541 425.175 525.134 423.175 525.449C421.175 525.884 419.241 526.493 417.284 527.08C412.937 528.385 408.662 529.886 404.459 531.583L401.351 532.866C381.357 541.525 363.294 554.096 348.225 569.84C332.789 585.254 320.639 603.641 312.51 623.888C304.282 643.899 300.036 665.324 300.011 686.962C299.65 717.209 307.849 746.94 323.662 772.721C339.449 798.323 362.023 819.042 388.874 832.576C416.567 846.873 448.267 854.014 483.974 854C529.188 854 568.17 844.923 600.921 826.769C633.672 808.616 658.373 785.981 675.024 758.867C691.675 731.81 700 705.181 700 678.98C700 642.658 691.37 610.65 674.111 582.955C658.203 556.803 637.975 533.542 614.29 514.161V514.161ZM430.566 422.508C428.066 421.007 425.218 419.028 422.719 417.527C418.958 415.352 415.35 412.764 411.85 410.154C404.366 404.59 397.264 398.53 390.591 392.015C386.774 388.291 383.147 384.379 379.722 380.292C367.64 365.764 358.526 349.004 352.898 330.963C347.963 316.247 345.516 300.811 345.66 285.289C345.623 263.189 350.579 241.367 360.159 221.454C368.079 204.435 379.432 189.24 393.504 176.823C407.494 164.514 423.733 155.031 441.326 148.897C456.803 143.59 469.584 140.914 495.669 140.914C526.686 140.697 557.206 148.712 584.118 164.143C611.384 179.824 633.73 202.815 648.635 230.523C664.575 259.305 672.546 292.553 672.546 330.267C672.546 366.517 665.416 399.402 651.156 428.924C638.125 456.758 617.482 480.33 591.618 496.913C573.315 483.646 552.034 469.603 527.775 454.784C500.995 438.69 489.67 433.774 477.779 423.943C472.503 419.782 468 414.724 464.476 409.001V369.852C468.347 360.825 474.308 352.848 481.866 346.58C495.787 334.315 513.75 327.637 532.296 327.831C548.301 327.82 564.176 330.693 579.162 336.314C594.262 342.041 605.674 349.98 613.398 360.13C619.884 368.815 625.587 378.058 630.441 387.752H634.005L627.767 353.8L626.876 348.428C626.072 347.712 625.172 347.112 624.202 346.645C623.208 346.209 622.296 345.606 621.507 344.861C619.724 343.665 614.072 340.707 604.551 335.922C583.116 326.655 560.037 321.795 536.687 321.633C514.66 321.633 495.618 326.099 479.562 335.03C474.16 337.765 469.097 341.123 464.476 345.035V254.078C464.496 248.194 466.12 242.426 469.171 237.396C472.33 232.06 476.077 229.399 480.41 229.414V227.957H425.24V229.414C428.61 229.414 432.001 231.828 435.37 236.657C439.239 242.935 441.174 251.156 441.174 261.321V429.25L430.566 422.508ZM521.45 488.714C534.775 497.153 546.969 505.222 558.207 512.899C538.941 519.248 518.73 522.242 498.452 521.752L464.389 521.077V450.173C477.953 461.527 493.082 470.509 521.45 488.714V488.714ZM648.678 758.932C635.288 786.032 614.601 808.217 586.618 825.486C558.635 842.755 524.413 851.39 483.953 851.39C452.758 851.603 421.921 844.732 393.765 831.293C366.6 818.579 343.442 798.65 326.814 773.678C310.163 748.666 301.83 719.783 301.816 687.028C301.912 665.713 306.157 644.622 314.315 624.932C322.457 604.692 334.605 586.308 350.029 570.884C365.044 555.715 382.73 543.452 402.199 534.714C411.286 530.686 420.752 527.575 430.457 525.427H497.039C519.242 525.633 541.345 522.428 562.577 515.923C575.619 524.971 587.212 533.482 597.356 541.457C617.329 557.289 634.406 576.466 647.83 598.137C661.8 620.481 668.792 645.942 668.807 674.521C668.762 703.843 661.869 732.749 648.678 758.932V758.932Z" fill="white"/>
<path d="M483.887 857C447.869 857 415.418 849.679 387.425 835.275C360.138 821.477 337.191 800.428 321.108 774.444C305.039 748.235 296.687 718.035 297.009 687.303C297.062 665.354 301.383 643.625 309.733 623.322C318.029 602.76 330.39 584.081 346.078 568.4C361.409 552.395 379.775 539.597 400.105 530.75L403.303 529.425C407.413 527.774 411.807 526.231 416.353 524.862C418.811 524.102 420.703 523.559 422.486 523.168C424.22 522.902 425.91 522.406 427.511 521.691C428.694 521.039 429.736 520.161 430.578 519.105C431.401 518.026 432.129 516.878 432.753 515.673L433.557 514.26C436.668 508.916 438.234 501.595 438.234 492.535V433.877C435.149 431.439 431.94 429.162 428.62 427.055L425.358 425.056C422.639 423.362 419.855 421.645 417.223 419.929C409.411 414.817 402.001 409.115 395.059 402.875C388.428 397.104 382.247 390.836 376.572 384.125C364.101 369.065 354.576 351.798 348.492 333.223C343.455 317.72 340.95 301.508 341.075 285.21C340.748 262.656 345.834 240.351 355.909 220.164C364.515 202.856 376.323 187.332 390.709 174.41C405.004 161.641 421.546 151.63 439.495 144.886C455.721 138.998 468.815 136 495.589 136C535.501 136 571.585 144.408 602.84 160.984C633.371 176.884 658.871 200.955 676.486 230.505C694.082 260.052 703 294.313 703 332.31C703 358.729 695.213 387.558 679.836 418.017C664.459 448.476 641.099 474.807 610.387 496.228C607.734 498.082 605.008 499.864 602.209 501.573C607.103 505.244 611.779 508.829 616.173 512.436C640.114 532.039 660.565 555.544 676.66 581.957C694.061 609.939 703 642.788 703 679.373C703 705.965 694.452 733.318 677.574 760.713C660.696 788.109 635.422 811.225 602.383 829.539C569.345 847.854 529.411 857 483.887 857ZM430.36 528.664C421.091 530.842 412.047 533.882 403.346 537.746C384.173 546.359 366.745 558.413 351.928 573.31C336.786 588.458 324.847 606.492 316.823 626.342C308.82 645.678 304.647 666.38 304.535 687.303C304.535 719.283 312.778 747.873 329.069 772.271C345.464 796.738 368.236 816.269 394.929 828.757C422.723 841.972 453.149 848.738 483.931 848.549C523.691 848.549 557.752 839.989 585.179 823.087C612.606 806.184 633.029 784.22 646.21 757.78C659.163 732.001 665.939 703.568 666.003 674.724C666.003 646.85 659.086 621.693 645.449 599.924C632.185 578.589 615.344 559.695 595.662 544.068C586.049 536.507 574.76 528.23 562.123 519.475C541 525.746 519.06 528.843 497.025 528.664H430.36ZM651.256 760.387C637.684 787.805 616.456 810.551 588.18 828.018C582.042 831.792 575.654 835.145 569.062 838.056C579.579 834.392 589.766 829.843 599.512 824.455C631.681 806.619 656.28 784.155 672.615 757.65C688.949 731.145 697.214 704.792 697.214 679.265C697.214 643.679 688.514 611.916 671.723 584.846C655.951 559.02 635.936 536.031 612.519 516.846V516.846C607.146 512.501 601.383 508.156 595.314 503.637L591.834 501.073L595.575 498.901C599.512 496.619 603.362 494.186 607.016 491.623C636.944 470.745 659.717 445.13 674.659 415.584C689.602 386.037 697.214 357.968 697.214 332.441C697.214 295.508 688.514 262.203 671.484 233.547C654.394 204.911 629.662 181.591 600.056 166.198C586.062 158.806 571.241 153.096 555.903 149.187C566.12 152.781 575.991 157.289 585.396 162.657C613.093 178.609 635.816 201.923 651.039 230.006C667.156 259.053 675.334 293.009 675.334 331.029C675.334 367.506 668.026 401.071 653.583 430.813C640.289 459.032 619.312 482.943 593.052 499.813L591.443 500.856L589.855 499.726C571.52 486.452 550.095 472.331 526.17 457.753C517.187 452.365 509.923 448.237 503.811 444.718C491.805 437.896 483.888 433.377 475.796 426.707C470.267 422.333 465.549 417.024 461.855 411.022L461.463 410.37L461.68 369.461C465.722 360.053 471.93 351.731 479.798 345.172C494.227 332.525 512.804 325.613 531.999 325.749C548.341 325.773 564.546 328.716 579.85 334.44C595.488 340.262 607.473 348.539 615.499 359.033C620.795 366.018 625.502 373.43 629.571 381.193L624.025 350.777C623.601 350.486 623.157 350.225 622.698 349.995C621.419 349.416 620.25 348.622 619.24 347.649C618.109 346.953 612.497 344.02 603.036 339.284C581.992 330.234 559.347 325.484 536.436 325.315C514.969 325.315 496.198 329.66 480.625 338.35C475.382 340.996 470.469 344.248 465.987 348.04L461.311 351.972V254.816C461.338 248.432 463.105 242.176 466.422 236.719C467.497 234.846 468.813 233.122 470.337 231.592H434.079C435.387 232.88 436.567 234.291 437.603 235.806C441.844 242.65 443.932 251.449 443.932 262.072V492.492C443.932 502.616 442.083 510.893 438.473 517.107L437.733 518.432C436.95 519.907 436.048 521.317 435.036 522.647L434.71 523.059H461.463V444.652L466.118 448.541C476.993 457.601 488.694 465.031 508.074 477.349L522.929 486.8C535.979 495.077 548.399 503.224 559.796 511.023L562.993 513.196L564.494 514.217C577.544 523.255 589.181 531.793 599.099 539.592C619.314 555.645 636.612 575.054 650.234 596.969C664.437 619.65 671.658 645.829 671.658 674.789C671.591 704.509 664.606 733.806 651.256 760.366V760.387ZM467.14 518.714L498.46 519.366C516.474 519.799 534.447 517.462 551.748 512.436C541.765 505.679 531.064 498.683 519.884 491.601L505.051 482.15C488.172 471.418 477.058 464.357 467.162 456.667L467.14 518.714ZM467.14 408.784C470.465 413.932 474.617 418.498 479.429 422.297C487.128 428.663 494.48 432.834 506.638 439.677C512.772 443.197 520.08 447.346 529.128 452.713C552.488 466.943 573.499 480.76 591.617 493.773C616.272 477.513 635.966 454.782 648.537 428.076C662.544 399.116 669.657 366.376 669.657 330.768C669.657 293.835 661.718 260.704 646.079 232.504C631.352 205.366 609.383 182.836 582.612 167.415C556.123 152.306 526.114 144.438 495.611 144.603C469.685 144.603 457.265 147.232 442.17 152.424C424.868 158.433 408.892 167.729 395.125 179.798C381.377 191.958 370.273 206.806 362.499 223.423C353.129 242.953 348.268 264.335 348.274 285.992C348.137 301.185 350.533 316.296 355.365 330.703C360.885 348.399 369.835 364.838 381.705 379.085C385.084 383.1 388.67 386.936 392.449 390.578C399.014 397.042 406.012 403.053 413.395 408.567C417.201 411.369 420.703 413.737 424.096 415.779C425.336 416.54 426.663 417.387 428.011 418.256C429.36 419.125 430.686 419.994 431.926 420.754C432.318 420.972 435.45 422.927 438.234 424.752V262.072C438.234 252.513 436.428 244.692 432.861 238.935C431.034 236.306 428.098 233.026 425.14 233.026H422.291V225.9H483.192V233.026H480.342C477.036 233.026 474.165 235.198 471.642 239.543C468.816 244.115 467.31 249.378 467.292 254.751V339.806C470.729 337.277 474.366 335.032 478.167 333.093C494.502 324.033 514.186 319.406 536.632 319.406C560.369 319.591 583.828 324.526 605.624 333.918C618.826 340.436 621.893 342.304 623.024 343.086C623.711 343.751 624.505 344.294 625.373 344.694C626.627 345.274 627.78 346.052 628.788 346.997L629.462 347.627L630.506 353.905L637.358 391.186H628.657L627.853 389.665C623.114 380.121 617.531 371.018 611.17 362.465C603.775 352.798 592.617 345.085 578.023 339.697C563.336 334.218 547.786 331.407 532.108 331.398C514.231 331.253 496.926 337.687 483.496 349.473C476.437 355.356 470.838 362.792 467.14 371.199V408.784Z" fill="white"/>
<path d="M500 989C445.911 988.937 394.057 967.428 355.812 929.193C317.568 890.958 296.058 839.119 296 785.05V214.928C296 160.843 317.493 108.973 355.75 70.7292C394.008 32.4852 445.896 11 500 11C554.104 11 605.992 32.4852 644.25 70.7292C682.507 108.973 704 160.843 704 214.928V785.05C703.942 839.119 682.432 890.958 644.188 929.193C605.943 967.428 554.088 988.937 500 989V989ZM500 18.9546C448.024 19.0121 398.193 39.6777 361.44 76.4175C324.688 113.157 304.015 162.971 303.957 214.928V785.05C303.957 837.025 324.612 886.872 361.377 923.624C398.142 960.376 448.006 981.024 500 981.024C551.994 981.024 601.858 960.376 638.623 923.624C675.388 886.872 696.043 837.025 696.043 785.05V214.928C695.985 162.971 675.312 113.157 638.56 76.4175C601.807 39.6777 551.976 19.0121 500 18.9546V18.9546Z" fill="white"/>
</svg>
